<?xml version="1.0" standalone="no"?>
<!DOCTYPE svg PUBLIC "-//W3C//DTD SVG 20010904//EN"
 "http://www.w3.org/TR/2001/REC-SVG-20010904/DTD/svg10.dtd">
<svg version="1.0" xmlns="http://www.w3.org/2000/svg"
 width="512.000000pt" height="512.000000pt" viewBox="0 0 512.000000 512.000000"
 preserveAspectRatio="xMidYMid meet">
<metadata>
Created by potrace 1.16, written by Peter Selinger 2001-2019
</metadata>
<g transform="translate(0.000000,512.000000) scale(0.100000,-0.100000)"
fill="#000000" stroke="none">
<path d="M2310 5114 c-608 -72 -1108 -303 -1523 -703 -409 -394 -656 -861
-758 -1436 -21 -115 -24 -161 -24 -410 0 -224 4 -302 18 -390 89 -542 319
-1007 686 -1388 394 -409 861 -656 1436 -758 115 -21 161 -24 410 -24 224 0
302 4 390 18 542 89 1007 319 1388 686 409 394 656 861 758 1436 21 115 24
161 24 410 0 224 -4 302 -18 390 -89 542 -319 1007 -686 1388 -394 409 -862
656 -1436 758 -98 18 -167 22 -375 24 -140 2 -271 1 -290 -1z m381 -1064 c360
-35 670 -181 924 -435 259 -259 400 -561 435 -935 42 -445 -154 -937 -491
-1231 -215 -189 -486 -319 -754 -364 -132 -22 -358 -22 -490 0 -194 32 -429
126 -590 235 -502 341 -752 953 -630 1544 88 426 372 804 765 1018 154 84 369
149 557 167 123 12 164 12 274 1z" fill="rgb(30,102,251)"/>
<path d="M2131 3026 c-50 -28 -50 -33 -51 -463 0 -291 3 -409 12 -428 24 -54
33 -55 468 -55 435 0 444 1 468 55 9 19 12 137 12 425 0 429 -1 440 -51 466
-39 20 -822 20 -858 0z" fill="rgb(30,102,251)"/>
</g>
</svg>
